<svg width="1640" height="895" viewBox="0 0 1640 895" fill="none" xmlns="http://www.w3.org/2000/svg">
<g id="SVG">
<rect id="Face" x="872" y="124" width="425" height="602" fill="#FF0000"/>
<rect id="BG" opacity="0.25" width="1640" height="895" fill="black"/>
<g id="Scanning Face">
<g id="Edges" opacity="0.5">
<rect id="Rectangle 1417" x="1208" y="119" width="103" height="82" fill="black"/>
<rect id="Rectangle 1418" x="1333" y="553" width="77" height="103" fill="black"/>
<rect id="Rectangle 1415" x="753" y="221" width="77" height="103" fill="black"/>
<rect id="Rectangle 1416" x="853" y="675" width="103" height="82" fill="black"/>
</g>
<g id="Dots 2">
<path id="Vector" d="M1106.91 716.324C1106.76 721.844 1102.15 726.194 1096.63 726.038C1091.11 725.882 1086.76 721.278 1086.92 715.758C1087.08 710.238 1091.68 705.888 1097.2 706.044C1102.72 706.2 1107.07 710.804 1106.91 716.324Z" fill="#18181B"/>
<path id="Vector_2" d="M1036.91 704.324C1036.76 709.844 1032.15 714.194 1026.63 714.038C1021.11 713.882 1016.76 709.278 1016.92 703.758C1017.08 698.238 1021.68 693.888 1027.2 694.044C1032.72 694.2 1037.07 698.804 1036.91 704.324Z" fill="#18181B"/>
<path id="Vector_3" d="M1168.91 695.324C1168.76 700.844 1164.15 705.194 1158.63 705.038C1153.11 704.882 1148.76 700.278 1148.92 694.758C1149.08 689.238 1153.68 684.888 1159.2 685.044C1164.72 685.2 1169.07 689.804 1168.91 695.324Z" fill="#18181B"/>
<path id="Vector_4" d="M1281.91 575.324C1281.76 580.844 1277.15 585.194 1271.63 585.038C1266.11 584.882 1261.76 580.278 1261.92 574.758C1262.08 569.238 1266.68 564.888 1272.2 565.044C1277.72 565.2 1282.07 569.804 1281.91 575.324Z" fill="#18181B"/>
<path id="Vector_5" d="M948.913 635.324C948.757 640.844 944.154 645.194 938.634 645.038C933.115 644.882 928.765 640.278 928.921 634.758C929.077 629.238 933.681 624.888 939.2 625.044C944.72 625.2 949.069 629.804 948.913 635.324Z" fill="#18181B"/>
<path id="Vector_6" d="M1099.91 635.324C1099.76 640.844 1095.15 645.194 1089.63 645.038C1084.11 644.882 1079.76 640.278 1079.92 634.758C1080.08 629.238 1084.68 624.888 1090.2 625.044C1095.72 625.2 1100.07 629.804 1099.91 635.324Z" fill="#18181B"/>
<path id="Vector_7" d="M1074.91 526.324C1074.76 531.844 1070.15 536.194 1064.63 536.038C1059.11 535.882 1054.76 531.278 1054.92 525.758C1055.08 520.238 1059.68 515.888 1065.2 516.044C1070.72 516.2 1075.07 520.804 1074.91 526.324Z" fill="#18181B"/>
<path id="Vector_8" d="M1063.91 468.324C1063.76 473.844 1059.15 478.194 1053.63 478.038C1048.11 477.882 1043.76 473.278 1043.92 467.758C1044.08 462.238 1048.68 457.888 1054.2 458.044C1059.72 458.2 1064.07 462.804 1063.91 468.324Z" fill="#18181B"/>
<path id="Vector_9" d="M1057.91 380.324C1057.76 385.844 1053.15 390.194 1047.63 390.038C1042.11 389.882 1037.76 385.278 1037.92 379.758C1038.08 374.238 1042.68 369.888 1048.2 370.044C1053.72 370.2 1058.07 374.804 1057.91 380.324Z" fill="#18181B"/>
<path id="Vector_10" d="M1048.91 323.324C1048.76 328.844 1044.15 333.194 1038.63 333.038C1033.11 332.882 1028.76 328.278 1028.92 322.758C1029.08 317.238 1033.68 312.888 1039.2 313.044C1044.72 313.2 1049.07 317.804 1048.91 323.324Z" fill="#18181B"/>
<path id="Vector_11" d="M1043.91 230.324C1043.76 235.844 1039.15 240.194 1033.63 240.038C1028.11 239.882 1023.76 235.278 1023.92 229.758C1024.08 224.238 1028.68 219.888 1034.2 220.044C1039.72 220.2 1044.07 224.804 1043.91 230.324Z" fill="#18181B"/>
<path id="Vector_12" d="M1038.91 134.324C1038.76 139.844 1034.15 144.194 1028.63 144.038C1023.11 143.882 1018.76 139.278 1018.92 133.758C1019.08 128.238 1023.68 123.888 1029.2 124.044C1034.72 124.2 1039.07 128.804 1038.91 134.324Z" fill="#18181B"/>
<path id="Vector_13" d="M1167.91 278.324C1167.76 283.844 1163.15 288.194 1157.63 288.038C1152.11 287.882 1147.76 283.278 1147.92 277.758C1148.08 272.238 1152.68 267.888 1158.2 268.044C1163.72 268.2 1168.07 272.804 1167.91 278.324Z" fill="#18181B"/>
<path id="Vector_14" d="M1202.27 263.563C1202.12 269.083 1197.52 273.433 1192 273.277C1186.48 273.12 1182.13 268.517 1182.28 262.997C1182.44 257.477 1187.04 253.127 1192.56 253.283C1198.08 253.439 1202.43 258.043 1202.27 263.563Z" fill="#18181B"/>
<path id="Vector_15" d="M1272.27 299.563C1272.12 305.083 1267.52 309.433 1262 309.277C1256.48 309.12 1252.13 304.517 1252.28 298.997C1252.44 293.477 1257.04 289.127 1262.56 289.283C1268.08 289.439 1272.43 294.043 1272.27 299.563Z" fill="#18181B"/>
<path id="Vector_16" d="M915.913 334.324C915.757 339.844 911.154 344.194 905.634 344.038C900.115 343.882 895.765 339.278 895.921 333.758C896.077 328.238 900.681 323.888 906.2 324.044C911.72 324.2 916.069 328.804 915.913 334.324Z" fill="#18181B"/>
<path id="Vector_17" d="M872.275 382.563C872.119 388.083 867.515 392.433 861.996 392.277C856.476 392.12 852.127 387.517 852.283 381.997C852.439 376.477 857.042 372.127 862.562 372.283C868.081 372.439 872.431 377.043 872.275 382.563Z" fill="#18181B"/>
<path id="Vector_18" d="M975.913 414.324C975.757 419.844 971.154 424.194 965.634 424.038C960.115 423.882 955.765 419.278 955.921 413.758C956.077 408.238 960.681 403.888 966.2 404.044C971.72 404.2 976.069 408.804 975.913 414.324Z" fill="#18181B"/>
<path id="Vector_19" d="M1175.91 378.324C1175.76 383.844 1171.15 388.194 1165.63 388.038C1160.11 387.882 1155.76 383.278 1155.92 377.758C1156.08 372.238 1160.68 367.888 1166.2 368.044C1171.72 368.2 1176.07 372.804 1175.91 378.324Z" fill="#18181B"/>
<path id="Vector_20" d="M953.471 201.569C953.315 207.089 948.712 211.439 943.192 211.283C937.673 211.127 933.323 206.523 933.479 201.003C933.635 195.483 938.239 191.133 943.758 191.289C949.278 191.446 953.627 196.049 953.471 201.569Z" fill="#18181B"/>
<path id="Vector_21" d="M1143.47 177.569C1143.31 183.089 1138.71 187.439 1133.19 187.283C1127.67 187.127 1123.32 182.523 1123.48 177.003C1123.64 171.483 1128.24 167.133 1133.76 167.289C1139.28 167.446 1143.63 172.049 1143.47 177.569Z" fill="#18181B"/>
<path id="Vector_22" d="M932.913 494.324C932.757 499.844 928.154 504.194 922.634 504.038C917.115 503.882 912.765 499.278 912.921 493.758C913.077 488.238 917.681 483.888 923.2 484.044C928.72 484.2 933.069 488.804 932.913 494.324Z" fill="#18181B"/>
<path id="Vector_23" d="M897.913 450.324C897.757 455.844 893.154 460.194 887.634 460.038C882.115 459.882 877.765 455.278 877.921 449.758C878.077 444.238 882.681 439.888 888.2 440.044C893.72 440.2 898.069 444.804 897.913 450.324Z" fill="#18181B"/>
<path id="Vector_24" d="M1285.91 374.324C1285.76 379.844 1281.15 384.194 1275.63 384.038C1270.11 383.882 1265.76 379.278 1265.92 373.758C1266.08 368.238 1270.68 363.888 1276.2 364.044C1281.72 364.2 1286.07 368.804 1285.91 374.324Z" fill="#18181B"/>
<path id="Vector_25" d="M1316.27 468.563C1316.12 474.083 1311.52 478.433 1306 478.277C1300.48 478.12 1296.13 473.517 1296.28 467.997C1296.44 462.477 1301.04 458.127 1306.56 458.283C1312.08 458.439 1316.43 463.043 1316.27 468.563Z" fill="#18181B"/>
<path id="Vector_26" d="M1258.91 424.324C1258.76 429.844 1254.15 434.194 1248.63 434.038C1243.11 433.882 1238.76 429.278 1238.92 423.758C1239.08 418.238 1243.68 413.888 1249.2 414.044C1254.72 414.2 1259.07 418.804 1258.91 424.324Z" fill="#18181B"/>
<path id="Vector_27" d="M1218.91 524.324C1218.76 529.844 1214.15 534.194 1208.63 534.038C1203.11 533.882 1198.76 529.278 1198.92 523.758C1199.08 518.238 1203.68 513.888 1209.2 514.044C1214.72 514.2 1219.07 518.804 1218.91 524.324Z" fill="#18181B"/>
<path id="Vector_28" d="M964.913 556.324C964.757 561.844 960.154 566.194 954.634 566.038C949.115 565.882 944.765 561.278 944.921 555.758C945.077 550.238 949.681 545.888 955.2 546.044C960.72 546.2 965.069 550.804 964.913 556.324Z" fill="#18181B"/>
</g>
<g id="Group 576">
<circle id="Ellipse 1312" cx="1029" cy="134" r="10" fill="#FFFF00"/>
<circle id="Ellipse 1313" cx="1133" cy="177" r="10" fill="#FFFF00"/>
<circle id="Ellipse 1314" cx="943" cy="201" r="10" fill="#FFFF00"/>
<circle id="Ellipse 1315" cx="1034" cy="230" r="10" fill="#FFFF00"/>
<circle id="Ellipse 1316" cx="1039" cy="323" r="10" fill="#FFFF00"/>
<circle id="Ellipse 1317" cx="1158" cy="278" r="10" fill="#FFFF00"/>
<circle id="Ellipse 1318" cx="1193" cy="263" r="10" fill="#FFFF00"/>
<circle id="Ellipse 1319" cx="906" cy="334" r="10" fill="#FFFF00"/>
<circle id="Ellipse 1320" cx="862" cy="382" r="10" fill="#FFFF00"/>
<circle id="Ellipse 1321" cx="1048" cy="380" r="10" fill="#FFFF00"/>
<circle id="Ellipse 1322" cx="1262" cy="299" r="10" fill="#FFFF00"/>
<circle id="Ellipse 1323" cx="1276" cy="374" r="10" fill="#FFFF00"/>
<circle id="Ellipse 1324" cx="1166" cy="378" r="10" fill="#FFFF00"/>
<circle id="Ellipse 1325" cx="966" cy="414" r="10" fill="#FFFF00"/>
<circle id="Ellipse 1326" cx="888" cy="450" r="10" fill="#FFFF00"/>
<circle id="Ellipse 1327" cx="1249" cy="424" r="10" fill="#FFFF00"/>
<circle id="Ellipse 1328" cx="1306" cy="468" r="10" fill="#FFFF00"/>
<circle id="Ellipse 1329" cx="1054" cy="468" r="10" fill="#FFFF00"/>
<circle id="Ellipse 1330" cx="923" cy="494" r="10" fill="#FFFF00"/>
<circle id="Ellipse 1331" cx="1065" cy="526" r="10" fill="#FFFF00"/>
<circle id="Ellipse 1332" cx="1209" cy="524" r="10" fill="#FFFF00"/>
<circle id="Ellipse 1333" cx="1272" cy="575" r="10" fill="#FFFF00"/>
<circle id="Ellipse 1334" cx="955" cy="556" r="10" fill="#FFFF00"/>
<circle id="Ellipse 1335" cx="939" cy="635" r="10" fill="#FFFF00"/>
<circle id="Ellipse 1336" cx="1090" cy="635" r="10" fill="#FFFF00"/>
<circle id="Ellipse 1337" cx="1097" cy="716" r="10" fill="#FFFF00"/>
<circle id="Ellipse 1338" cx="1159" cy="695" r="10" fill="#FFFF00"/>
<circle id="Ellipse 1339" cx="1027" cy="704" r="10" fill="#FFFF00"/>
</g>
</g>
</g>
</svg>
