<svg width="1640" height="895" viewBox="0 0 1640 895" fill="none" xmlns="http://www.w3.org/2000/svg">
<rect opacity="0.25" width="1640" height="895" fill="#D9D9D9"/>
<g opacity="0.5">
<rect x="1208" y="119" width="103" height="82" fill="#D9D9D9"/>
<rect x="1333" y="553" width="77" height="103" fill="#D9D9D9"/>
<rect x="753" y="221" width="77" height="103" fill="#D9D9D9"/>
<rect x="853" y="675" width="103" height="82" fill="#D9D9D9"/>
</g>
<circle cx="913" cy="163" r="10" fill="#D9D9D9"/>
<circle cx="1107" cy="135" r="10" fill="#D9D9D9"/>
<circle cx="1191" cy="263" r="10" fill="#D9D9D9"/>
<circle cx="1261" cy="299" r="10" fill="#D9D9D9"/>
<circle cx="1036" cy="276" r="10" fill="#D9D9D9"/>
<circle cx="1047" cy="368" r="10" fill="#D9D9D9"/>
<circle cx="1275" cy="375" r="10" fill="#D9D9D9"/>
<circle cx="1042" cy="440" r="10" fill="#D9D9D9"/>
<circle cx="1042" cy="477" r="10" fill="#D9D9D9"/>
<circle cx="1226" cy="565" r="10" fill="#D9D9D9"/>
<circle cx="1303" cy="579" r="10" fill="#D9D9D9"/>
<circle cx="1306" cy="468" r="10" fill="#D9D9D9"/>
<circle cx="1236" cy="441" r="10" fill="#D9D9D9"/>
<circle cx="924" cy="625" r="10" fill="#D9D9D9"/>
<circle cx="922" cy="494" r="10" fill="#D9D9D9"/>
<circle cx="884" cy="448" r="10" fill="#D9D9D9"/>
<circle cx="857" cy="358" r="10" fill="#D9D9D9"/>
<circle cx="959" cy="569" r="10" fill="#D9D9D9"/>
<circle cx="1068" cy="555" r="10" fill="#D9D9D9"/>
<circle cx="1002" cy="695" r="10" fill="#D9D9D9"/>
<circle cx="1085" cy="620" r="10" fill="#D9D9D9"/>
<circle cx="1090" cy="731" r="10" fill="#D9D9D9"/>
<circle cx="1196" cy="684" r="10" fill="#D9D9D9"/>
</svg>
